<svg width="36" height="27" viewBox="0 0 36 27" fill="none" xmlns="http://www.w3.org/2000/svg">
<path d="M0.125 5.5C0.125 4.18832 1.18832 3.125 2.5 3.125H4.875C6.18668 3.125 7.25 4.18832 7.25 5.5V17.375C7.25 18.6867 8.31332 19.75 9.625 19.75H26.25C27.5617 19.75 28.625 18.6867 28.625 17.375V5.5C28.625 4.18832 29.6883 3.125 31 3.125H33.375C34.6867 3.125 35.75 4.18832 35.75 5.5V20.9375C35.75 24.2167 33.0917 26.875 29.8125 26.875H6.0625C2.78331 26.875 0.125 24.2167 0.125 20.9375V5.5Z" fill="#D9D9D9"/>
<path d="M8.4375 4.3125C8.4375 2.34499 10.0325 0.75 12 0.75H23.875C25.8425 0.75 27.4375 2.34499 27.4375 4.3125V17.375C27.4375 18.0308 26.9058 18.5625 26.25 18.5625H9.625C8.96916 18.5625 8.4375 18.0308 8.4375 17.375V4.3125Z" fill="#D9D9D9"/>
</svg>
